<?xml version="1.0" standalone="no"?>
<!DOCTYPE svg PUBLIC "-//W3C//DTD SVG 20010904//EN"
 "http://www.w3.org/TR/2001/REC-SVG-20010904/DTD/svg10.dtd">
<svg version="1.0" xmlns="http://www.w3.org/2000/svg"
 width="512.000000pt" height="512.000000pt" viewBox="0 0 512.000000 512.000000"
 preserveAspectRatio="xMidYMid meet">

<g transform="translate(0.000000,512.000000) scale(0.100000,-0.100000)"
fill="#000000" stroke="none">
<path d="M3176 5099 l-26 -20 0 -198 c0 -194 0 -198 23 -219 29 -27 67 -28 98
-3 24 19 24 21 24 221 0 200 0 202 -24 221 -30 25 -62 24 -95 -2z"/>
<path d="M1903 4580 c-27 -11 -43 -40 -43 -76 0 -21 28 -55 133 -160 83 -84
142 -135 160 -140 42 -10 81 22 85 70 3 36 -2 43 -120 163 -111 112 -162 154
-185 152 -4 0 -18 -4 -30 -9z"/>
<path d="M4485 4580 c-30 -12 -285 -274 -285 -293 0 -49 55 -96 97 -83 10 3
78 66 152 140 115 115 134 139 134 166 0 50 -54 89 -98 70z"/>
<path d="M3080 4449 c-349 -41 -677 -239 -875 -527 l-48 -71 -48 24 c-26 14
-87 37 -136 52 -78 23 -104 26 -238 27 -178 0 -258 -18 -400 -88 -265 -132
-446 -374 -494 -663 l-13 -71 -71 -13 c-220 -37 -433 -163 -564 -334 -68 -88
-137 -227 -165 -330 -31 -116 -31 -337 0 -450 80 -288 304 -530 579 -626 143
-49 132 -49 1137 -49 932 0 943 0 961 20 25 28 23 76 -4 103 l-22 22 -962 5
-962 5 -80 28 c-460 161 -663 684 -424 1089 129 220 339 353 593 376 65 6 103
15 113 25 10 10 19 47 24 104 16 165 67 300 159 414 117 146 263 236 442 273
165 34 313 14 478 -66 92 -44 115 -61 195 -142 73 -73 100 -109 137 -181 60
-118 77 -176 89 -315 13 -149 29 -204 83 -277 51 -71 117 -116 204 -143 56
-17 93 -20 281 -20 251 0 307 -8 416 -59 151 -71 258 -188 311 -341 105 -300
-57 -630 -362 -742 -51 -19 -87 -22 -275 -27 -195 -5 -219 -8 -238 -25 -27
-25 -29 -86 -3 -109 16 -15 47 -17 224 -17 171 0 217 3 282 20 253 64 447 251
525 505 26 83 37 238 24 312 l-10 53 54 41 c73 57 185 179 243 264 238 353
282 789 119 1181 -32 76 -124 231 -162 272 -26 28 -79 30 -107 2 -32 -32 -25
-70 27 -146 254 -377 249 -871 -15 -1244 -25 -36 -82 -100 -125 -143 l-80 -78
-36 60 c-99 165 -246 280 -436 341 -63 21 -96 24 -340 29 -300 7 -312 10 -382
83 -46 47 -60 89 -68 203 -18 253 -130 493 -298 640 l-50 44 44 68 c24 37 80
104 125 149 363 368 945 423 1378 131 77 -53 121 -60 151 -27 10 11 18 35 18
52 0 39 -41 77 -155 144 -233 137 -501 194 -768 163z"/>
<path d="M4665 3276 c-32 -32 -33 -75 -2 -104 22 -21 32 -22 219 -22 l197 0
20 26 c26 33 27 65 2 95 -19 24 -23 24 -215 27 l-196 3 -25 -25z"/>
<path d="M4221 2214 c-41 -52 -27 -76 132 -231 97 -95 131 -123 152 -123 38 0
60 15 74 49 18 43 2 67 -142 209 -112 110 -127 122 -160 122 -27 0 -41 -7 -56
-26z"/>
<path d="M1518 1123 c-31 -35 -188 -363 -188 -392 0 -20 9 -36 26 -50 32 -25
52 -26 82 -5 27 19 202 363 202 397 0 56 -86 91 -122 50z"/>
<path d="M2343 1121 c-10 -11 -59 -101 -108 -201 -86 -175 -89 -183 -74 -208
8 -15 27 -33 42 -42 51 -29 72 -5 175 198 50 101 92 191 92 201 0 10 -9 30
-21 45 -25 32 -79 36 -106 7z"/>
<path d="M3180 1130 c-8 -4 -57 -94 -109 -198 -90 -180 -94 -191 -82 -220 16
-38 57 -57 94 -43 21 8 45 47 122 201 52 104 95 196 95 204 0 7 -9 25 -21 40
-21 27 -68 35 -99 16z"/>
<path d="M1857 469 c-25 -15 -197 -362 -197 -398 0 -20 9 -36 26 -50 34 -26
68 -27 94 -1 31 31 190 356 190 388 0 54 -65 89 -113 61z"/>
<path d="M2687 469 c-25 -15 -197 -362 -197 -399 0 -55 68 -90 111 -57 21 16
199 370 199 396 0 52 -66 87 -113 60z"/>
</g>
</svg>
